<?xml version="1.0" encoding="UTF-8"?>
<!DOCTYPE svg PUBLIC "-//W3C//DTD SVG 1.1//EN" "http://www.w3.org/Graphics/SVG/1.1/DTD/svg11.dtd">
<!-- Creator: CorelDRAW 2020 (64 Bit) -->
<svg xmlns="http://www.w3.org/2000/svg" xml:space="preserve" width="437px" height="292px" version="1.1" style="shape-rendering:geometricPrecision; text-rendering:geometricPrecision; image-rendering:optimizeQuality; fill-rule:evenodd; clip-rule:evenodd"
viewBox="0 0 7.1 4.73"
 xmlns:xlink="http://www.w3.org/1999/xlink"
 xmlns:xodm="http://www.corel.com/coreldraw/odm/2003">
 <defs>
  <style type="text/css">
   <![CDATA[
    .fil0 {fill:#8A6FAD}
   ]]>
  </style>
 </defs>
 <g id="Camada_x0020_1">
  <metadata id="CorelCorpID_0Corel-Layer"/>
  <path class="fil0" d="M4.8 3.85l0 -0.13c0,-0.35 0.61,-0.35 0.61,0l0 0.13c0,0.35 -0.61,0.35 -0.61,0zm2.3 -1.12l0 0.86c-0.02,0.09 -0.08,0.15 -0.21,0.33l-0.81 0c-0.13,0.28 -0.06,0.34 -0.31,0.56 -0.16,0.15 -0.35,0.23 -0.55,0.25l-0.22 0c-0.22,-0.02 -0.43,-0.12 -0.59,-0.28 -0.22,-0.21 -0.17,-0.28 -0.29,-0.53l-1.55 0c-0.04,0.49 -0.42,0.76 -0.83,0.81l-0.25 0c-0.4,-0.04 -0.77,-0.31 -0.81,-0.81 -0.44,0 -0.62,0.09 -0.68,-0.23l0 -3.11 0 -0.19 0 -0.19 0 -0.03c0.01,-0.12 0.05,-0.16 0.18,-0.17l0.02 0 4.06 0 0.02 0c0.24,0.01 0.18,0.21 0.18,0.68 1.22,0 1.01,0.08 1.51,0.99 0.3,0.56 1.1,0.18 1.13,0.86l0 0.04 0 0.05 0 0.06 0 0.05zm-5.82 1.05c0,-0.22 0.2,-0.26 0.34,-0.33 0.94,0.49 -0.34,1 -0.34,0.33zm3.18 -2.7l0.41 0c0.5,0 0.63,0.54 0.81,0.88l-1.22 0 0 -0.88z"/>
 </g>
</svg>
