<?xml version="1.0" encoding="UTF-8"?>
<!DOCTYPE svg PUBLIC "-//W3C//DTD SVG 1.1//EN" "http://www.w3.org/Graphics/SVG/1.1/DTD/svg11.dtd">
<!-- Creator: CorelDRAW 2020 (64 Bit) -->
<svg xmlns="http://www.w3.org/2000/svg" xml:space="preserve" width="396px" height="351px" version="1.1" style="shape-rendering:geometricPrecision; text-rendering:geometricPrecision; image-rendering:optimizeQuality; fill-rule:evenodd; clip-rule:evenodd"
viewBox="0 0 6.17 5.48"
 xmlns:xlink="http://www.w3.org/1999/xlink"
 xmlns:xodm="http://www.corel.com/coreldraw/odm/2003">
 <defs>
  <style type="text/css">
   <![CDATA[
    .fil0 {fill:#8A6FAD}
   ]]>
  </style>
 </defs>
 <g id="Camada_x0020_1">
  <metadata id="CorelCorpID_0Corel-Layer"/>
  <g id="_2543746374560">
   <path class="fil0" d="M0 0.2c0,0.39 0.48,0.5 0.87,0.69 0.51,0.25 0.42,0.33 0.5,0.99 0.05,0.41 0.12,0.93 0.17,1.32 0.18,1.4 -0.34,1.09 3.72,1.09 0.24,0 0.4,-0.68 0.54,-1.08 0.13,-0.37 0.69,-1.59 0.11,-1.59l-3.18 0c-0.35,0 -0.35,0.52 0,0.52l2.72 0 -0.07 0.52 -2.78 0c-0.34,0 -0.22,0.35 -0.13,0.52l2.72 0 -0.14 0.45 -2.84 0.01 -0.31 -2.48c-0.08,-0.45 -0.14,-0.44 -0.71,-0.73 -0.31,-0.15 -1.16,-0.71 -1.19,-0.26l0 0.03z"/>
   <path class="fil0" d="M1.75 4.87c0,0.77 1.04,0.82 1.04,0.07 0,-0.78 -1.04,-0.56 -1.04,-0.07z"/>
   <path class="fil0" d="M4.03 4.94c0,1.02 1.52,0.4 0.89,-0.32 -0.37,-0.42 -0.89,-0.13 -0.89,0.32z"/>
  </g>
 </g>
</svg>
