<?xml version="1.0" encoding="UTF-8"?>
<!DOCTYPE svg PUBLIC "-//W3C//DTD SVG 1.1//EN" "http://www.w3.org/Graphics/SVG/1.1/DTD/svg11.dtd">
<!-- Creator: CorelDRAW 2020 (64 Bit) -->
<svg xmlns="http://www.w3.org/2000/svg" xml:space="preserve" width="421px" height="333px" version="1.1" style="shape-rendering:geometricPrecision; text-rendering:geometricPrecision; image-rendering:optimizeQuality; fill-rule:evenodd; clip-rule:evenodd"
viewBox="0 0 5.96 4.72"
 xmlns:xlink="http://www.w3.org/1999/xlink"
 xmlns:xodm="http://www.corel.com/coreldraw/odm/2003">
 <defs>
  <style type="text/css">
   <![CDATA[
    .fil0 {fill:#8A6FAD}
   ]]>
  </style>
 </defs>
 <g id="Camada_x0020_1">
  <metadata id="CorelCorpID_0Corel-Layer"/>
  <g id="_2543753981584">
   <path class="fil0" d="M0.18 3.01c0.43,0.1 0.99,-0.19 1.35,0.42 0.47,0.8 -0.52,0.76 1.78,0.76 0.15,0 0.16,-0.03 0.29,-0.06 0.11,-0.23 0.12,-1.12 1,-1.12 0.94,0 0.89,0.92 1.01,1.07 0.15,0.21 0.32,0.09 0.35,-0.18l0 -0.18c-0.02,-0.21 -0.12,-0.47 -0.34,-0.72 -0.31,-0.35 -0.57,-0.19 -0.66,-0.52l0.65 -0.04c0.14,-0.75 0.15,-0.55 -2.66,-0.55 -0.21,0 -0.18,0.11 -0.18,0.35 0,0.23 0.24,0.24 0.48,0.24l0 0.71c-1.18,0 -1.34,0.15 -1.72,-0.42l0.54 -1.88c0.19,0 0.47,0.03 0.6,-0.06 0.17,-0.12 0.09,-0.36 -0.13,-0.36 -1.05,0 -0.72,-0.18 -1.62,1.16 -0.22,0.33 -0.74,1 -0.74,1.38z"/>
   <path class="fil0" d="M3.84 0.18c0,0.81 -0.13,1.36 0.17,1.36l1.6 0 0 -1.54 -0.77 0 0 0.3 -0.24 0 0 -0.3 -0.04 0 -0.59 0c-0.09,0.02 -0.13,0.07 -0.13,0.18z"/>
   <path class="fil0" d="M4.6 4.37c-0.41,-0.22 -0.41,-0.49 0,-0.71 0.28,0.15 0.21,0.08 0.36,0.35 -0.15,0.28 -0.08,0.21 -0.36,0.36zm0.12 0.35l-0.23 0c-0.31,-0.05 -0.59,-0.3 -0.59,-0.76 0,-0.87 1.41,-0.87 1.41,0 0,0.46 -0.28,0.71 -0.59,0.76z"/>
   <path class="fil0" d="M0.35 4.01c0.15,-0.27 0.08,-0.2 0.36,-0.35 0.41,0.22 0.41,0.49 0,0.71 -0.28,-0.15 -0.21,-0.08 -0.36,-0.36zm0.47 0.71l-0.23 0c-0.31,-0.05 -0.59,-0.3 -0.59,-0.76 0,-0.87 1.42,-0.87 1.42,0 0,0.46 -0.28,0.71 -0.6,0.76z"/>
  </g>
 </g>
</svg>
