<?xml version="1.0" encoding="UTF-8"?>
<!DOCTYPE svg PUBLIC "-//W3C//DTD SVG 1.1//EN" "http://www.w3.org/Graphics/SVG/1.1/DTD/svg11.dtd">
<!-- Creator: CorelDRAW 2020 (64 Bit) -->
<svg xmlns="http://www.w3.org/2000/svg" xml:space="preserve" width="425px" height="279px" version="1.1" style="shape-rendering:geometricPrecision; text-rendering:geometricPrecision; image-rendering:optimizeQuality; fill-rule:evenodd; clip-rule:evenodd"
viewBox="0 0 6.35 4.17"
 xmlns:xlink="http://www.w3.org/1999/xlink"
 xmlns:xodm="http://www.corel.com/coreldraw/odm/2003">
 <defs>
  <style type="text/css">
   <![CDATA[
    .fil0 {fill:#8A6FAD}
   ]]>
  </style>
 </defs>
 <g id="Camada_x0020_1">
  <metadata id="CorelCorpID_0Corel-Layer"/>
  <g id="_2543765251680">
   <path class="fil0" d="M0 1.43l0 2.12 0 0.03c0.02,0.27 0.3,0.21 0.58,0.45 0.14,0.11 0.02,0.14 0.29,0.14l0.06 0c0.28,0 0.1,-0.25 0.38,-0.25l3.73 0c0.34,0 -0.01,0.25 0.5,0.25 0.24,0 0.04,-0.1 0.42,-0.27 0.18,-0.08 0.38,-0.11 0.39,-0.33l0 -0.02 0 -2.12 0 -0.01c-0.01,-0.15 -0.23,-0.36 -0.37,-0.36 -0.62,0 -0.5,0.53 -0.5,1.12 -0.26,-0.15 -3.83,-0.06 -4.42,-0.06 -0.24,0 -0.02,-0.02 -0.19,0.06 0,-0.37 0.14,-1.12 -0.43,-1.12 -0.18,0 -0.42,0.18 -0.44,0.36l0 0.01z"/>
   <path class="fil0" d="M1 0.44c0,1.71 -0.23,1.43 1.8,1.43 0.44,0 0.31,-0.93 0.31,-1.43 0,-0.28 -0.11,-0.4 -0.35,-0.44l-1.34 0 -0.06 0 -0.05 0c-0.2,0 -0.31,0.23 -0.31,0.44z"/>
   <path class="fil0" d="M3.24 0.44c0,1.71 -0.23,1.43 1.8,1.43 0.44,0 0.32,-0.93 0.32,-1.43 0,-0.28 -0.12,-0.4 -0.35,-0.44l-1.35 0 -0.05 0 -0.06 0c-0.2,0 -0.31,0.23 -0.31,0.44z"/>
  </g>
 </g>
</svg>
